{
  "accessors": [
    {
      "bufferView": 3,
      "componentType": 5126,
      "count": 904,
      "max": [
        0.3402724266052246,
        1.0130611658096313,
        2.125027894973755
      ],
      "min": [
        -0.3311578035354614,
        -0.7516445517539978,
        -1.3650578260421753
      ],
      "type": "VEC3"
    },
    {
      "bufferView": 3,
      "byteOffset": 10848,
      "componentType": 5126,
      "count": 904,
      "max": [
        0.9999089241027832,
        0.9999761581420898,
        0.9989972710609436
      ],
      "min": [
        -0.9998137354850769,
        -0.9994935393333435,
        -0.9953315258026123
      ],
      "type": "VEC3"
    },
    {
      "bufferView": 4,
      "componentType": 5126,
      "count": 904,
      "max": [
        0.9734663963317871,
        0.9990217685699463,
        0.9999343752861023,
        1.0
      ],
      "min": [
        -0.9703217148780823,
        -0.9997680187225342,
        -0.9968385696411133,
        -1.0
      ],
      "type": "VEC4"
    },
    {
      "bufferView": 2,
      "componentType": 5126,
      "count": 904,
      "max": [
        0.9806259870529175,
        0.9726510047912598
      ],
      "min": [
        0.016424400731921196,
        0.012680113315582275
      ],
      "type": "VEC2"
    },
    {
      "bufferView": 1,
      "componentType": 5125,
      "count": 4815,
      "type": "SCALAR"
    },
    {
      "bufferView": 5,
      "componentType": 5126,
      "count": 9,
      "max": [
        1.0,
        0.971752941608429,
        0.7937191724777222,
        0.0,
        0.7994239330291748,
        1.0,
        0.9978524446487427,
        0.0,
        0.9578628540039063,
        0.997877836227417,
        1.0,
        0.0,
        0.40090274810791016,
        0.4109541177749634,
        0.2557812035083771,
        1.0
      ],
      "min": [
        -0.9999862909317017,
        -0.9694840908050537,
        -0.09162130951881409,
        0.0,
        -0.17211328446865082,
        -0.15109077095985413,
        0.0,
        0.0,
        -0.973617672920227,
        -0.9551894664764404,
        0.0019310673233121634,
        0.0,
        -0.394837349653244,
        -1.3539425134658813,
        -0.10303450375795364,
        1.0
      ],
      "type": "MAT4"
    },
    {
      "bufferView": 0,
      "componentType": 5123,
      "count": 904,
      "type": "VEC4"
    },
    {
      "bufferView": 4,
      "byteOffset": 14464,
      "componentType": 5126,
      "count": 904,
      "max": [
        1.0,
        0.49937695264816284,
        0.275215208530426,
        0.1565731167793274
      ],
      "min": [
        0.33300742506980896,
        0.0,
        0.0,
        0.0
      ],
      "type": "VEC4"
    },
    {
      "bufferView": 6,
      "componentType": 5126,
      "count": 41,
      "max": [
        1.6666666269302368
      ],
      "min": [
        0.0
      ],
      "type": "SCALAR"
    },
    {
      "bufferView": 7,
      "componentType": 5126,
      "count": 41,
      "max": [
        -0.5925739407539368,
        0.030649105086922646,
        0.028349099680781364,
        0.8049809336662292
      ],
      "min": [
        -0.5932992100715637,
        -0.034720756113529205,
        -0.04011934995651245,
        0.8037668466567993
      ],
      "type": "VEC4"
    },
    {
      "bufferView": 6,
      "byteOffset": 164,
      "componentType": 5126,
      "count": 41,
      "max": [
        1.6666666269302368
      ],
      "min": [
        0.0
      ],
      "type": "SCALAR"
    },
    {
      "bufferView": 7,
      "byteOffset": 656,
      "componentType": 5126,
      "count": 41,
      "max": [
        0.002245661336928606,
        0.6756572127342224,
        0.7372143268585205,
        0.018114017322659492
      ],
      "min": [
        -0.01179435197263956,
        -0.675645649433136,
        -0.7372158169746399,
        0.0008084237342700362
      ],
      "type": "VEC4"
    },
    {
      "bufferView": 6,
      "byteOffset": 328,
      "componentType": 5126,
      "count": 41,
      "max": [
        1.6666666269302368
      ],
      "min": [
        0.0
      ],
      "type": "SCALAR"
    },
    {
      "bufferView": 7,
      "byteOffset": 1312,
      "componentType": 5126,
      "count": 41,
      "max": [
        0.010973434895277023,
        0.011133430525660515,
        0.11405956745147705,
        0.9999393820762634
      ],
      "min": [
        0.010900260880589485,
        -0.008085455745458603,
        -0.08284584432840347,
        0.9933517575263977
      ],
      "type": "VEC4"
    },
    {
      "bufferView": 6,
      "byteOffset": 492,
      "componentType": 5126,
      "count": 41,
      "max": [
        1.6666666269302368
      ],
      "min": [
        0.0
      ],
      "type": "SCALAR"
    },
    {
      "bufferView": 7,
      "byteOffset": 1968,
      "componentType": 5126,
      "count": 41,
      "max": [
        -0.030763357877731323,
        0.012041120789945126,
        0.15763267874717712,
        0.9994746446609497
      ],
      "min": [
        -0.0320192351937294,
        -0.021105149760842323,
        -0.276276558637619,
        0.9603538513183594
      ],
      "type": "VEC4"
    },
    {
      "bufferView": 6,
      "byteOffset": 656,
      "componentType": 5126,
      "count": 41,
      "max": [
        1.6666666269302368
      ],
      "min": [
        0.0
      ],
      "type": "SCALAR"
    },
    {
      "bufferView": 7,
      "byteOffset": 2624,
      "componentType": 5126,
      "count": 41,
      "max": [
        -0.3918813169002533,
        -0.4840509593486786,
        -0.6118760108947754,
        0.46866196393966675
      ],
      "min": [
        -0.4143168330192566,
        -0.4995937645435333,
        -0.6321809887886047,
        0.4440520405769348
      ],
      "type": "VEC4"
    },
    {
      "bufferView": 6,
      "byteOffset": 820,
      "componentType": 5126,
      "count": 41,
      "max": [
        1.6666666269302368
      ],
      "min": [
        0.0
      ],
      "type": "SCALAR"
    },
    {
      "bufferView": 7,
      "byteOffset": 3280,
      "componentType": 5126,
      "count": 41,
      "max": [
        0.027641532942652702,
        -0.003551903646439314,
        -0.4896412491798401,
        0.8714661002159119
      ],
      "min": [
        0.024542614817619324,
        -0.005854525603353977,
        -0.5679095387458801,
        0.8227172493934631
      ],
      "type": "VEC4"
    },
    {
      "bufferView": 6,
      "byteOffset": 984,
      "componentType": 5126,
      "count": 41,
      "max": [
        1.6666666269302368
      ],
      "min": [
        0.0
      ],
      "type": "SCALAR"
    },
    {
      "bufferView": 7,
      "byteOffset": 3936,
      "componentType": 5126,
      "count": 41,
      "max": [
        -0.46070557832717896,
        0.5348523855209351,
        0.5776410698890686,
        0.4286888837814331
      ],
      "min": [
        -0.4754193425178528,
        0.525029182434082,
        0.5608446002006531,
        0.40989524126052856
      ],
      "type": "VEC4"
    },
    {
      "bufferView": 6,
      "byteOffset": 1148,
      "componentType": 5126,
      "count": 41,
      "max": [
        1.6666666269302368
      ],
      "min": [
        0.0
      ],
      "type": "SCALAR"
    },
    {
      "bufferView": 7,
      "byteOffset": 4592,
      "componentType": 5126,
      "count": 41,
      "max": [
        0.23206889629364014,
        -0.43912437558174133,
        0.522395133972168,
        0.7063944339752197
      ],
      "min": [
        0.22472892701625824,
        -0.44672155380249023,
        0.5009427666664124,
        0.6931213140487671
      ],
      "type": "VEC4"
    }
  ],
  "animations": [
    {
      "channels": [
        {
          "sampler": 0,
          "target": {
            "node": 8,
            "path": "rotation"
          }
        },
        {
          "sampler": 1,
          "target": {
            "node": 9,
            "path": "rotation"
          }
        },
        {
          "sampler": 2,
          "target": {
            "node": 10,
            "path": "rotation"
          }
        },
        {
          "sampler": 3,
          "target": {
            "node": 11,
            "path": "rotation"
          }
        },
        {
          "sampler": 4,
          "target": {
            "node": 12,
            "path": "rotation"
          }
        },
        {
          "sampler": 5,
          "target": {
            "node": 13,
            "path": "rotation"
          }
        },
        {
          "sampler": 6,
          "target": {
            "node": 14,
            "path": "rotation"
          }
        },
        {
          "sampler": 7,
          "target": {
            "node": 15,
            "path": "rotation"
          }
        }
      ],
      "name": "swim cycle",
      "samplers": [
        {
          "input": 8,
          "interpolation": "LINEAR",
          "output": 9
        },
        {
          "input": 10,
          "interpolation": "LINEAR",
          "output": 11
        },
        {
          "input": 12,
          "interpolation": "LINEAR",
          "output": 13
        },
        {
          "input": 14,
          "interpolation": "LINEAR",
          "output": 15
        },
        {
          "input": 16,
          "interpolation": "LINEAR",
          "output": 17
        },
        {
          "input": 18,
          "interpolation": "LINEAR",
          "output": 19
        },
        {
          "input": 20,
          "interpolation": "LINEAR",
          "output": 21
        },
        {
          "input": 22,
          "interpolation": "LINEAR",
          "output": 23
        }
      ]
    }
  ],
  "asset": {
    "extras": {
      "author": "kenchoo (https://sketchfab.com/kenchoo)",
      "license": "CC-BY-4.0 (http://creativecommons.org/licenses/by/4.0/)",
      "source": "https://sketchfab.com/3d-models/clownfish-e6db2c191bf346398087ba27de9b8a0a",
      "title": "Clownfish"
    },
    "generator": "Sketchfab-16.0.0",
    "version": "2.0"
  },
  "bufferViews": [
    {
      "buffer": 0,
      "byteLength": 7232,
      "byteStride": 8,
      "name": "shortBufferViews",
      "target": 34962
    },
    {
      "buffer": 0,
      "byteLength": 19260,
      "byteOffset": 7232,
      "name": "floatBufferViews",
      "target": 34963
    },
    {
      "buffer": 0,
      "byteLength": 7232,
      "byteOffset": 26492,
      "byteStride": 8,
      "name": "floatBufferViews",
      "target": 34962
    },
    {
      "buffer": 0,
      "byteLength": 21696,
      "byteOffset": 33724,
      "byteStride": 12,
      "name": "floatBufferViews",
      "target": 34962
    },
    {
      "buffer": 0,
      "byteLength": 28928,
      "byteOffset": 55420,
      "byteStride": 16,
      "name": "floatBufferViews",
      "target": 34962
    },
    {
      "buffer": 0,
      "byteLength": 576,
      "byteOffset": 84348,
      "name": "floatBufferViews"
    },
    {
      "buffer": 0,
      "byteLength": 1312,
      "byteOffset": 84924,
      "name": "floatBufferViews"
    },
    {
      "buffer": 0,
      "byteLength": 5248,
      "byteOffset": 86236,
      "byteStride": 16,
      "name": "floatBufferViews"
    }
  ],
  "buffers": [
    {
      "byteLength": 91484,
      "uri": "scene.bin"
    }
  ],
  "images": [
    {
      "uri": "textures/wire_028149177_baseColor.jpeg"
    },
    {
      "uri": "textures/wire_028149177_metallicRoughness.png"
    },
    {
      "uri": "textures/wire_028149177_normal.png"
    }
  ],
  "materials": [
    {
      "name": "wire_028149177",
      "normalTexture": {
        "index": 2
      },
      "occlusionTexture": {
        "index": 1
      },
      "pbrMetallicRoughness": {
        "baseColorTexture": {
          "index": 0
        },
        "metallicRoughnessTexture": {
          "index": 1
        }
      }
    }
  ],
  "meshes": [
    {
      "name": "Object_0",
      "primitives": [
        {
          "attributes": {
            "JOINTS_0": 6,
            "NORMAL": 1,
            "POSITION": 0,
            "TANGENT": 2,
            "TEXCOORD_0": 3,
            "TEXCOORD_1": 3,
            "TEXCOORD_2": 3,
            "TEXCOORD_3": 3,
            "TEXCOORD_4": 3,
            "WEIGHTS_0": 7
          },
          "indices": 4,
          "material": 0,
          "mode": 4
        }
      ]
    }
  ],
  "nodes": [
    {
      "children": [
        1
      ],
      "matrix": [
        1.0,
        0.0,
        0.0,
        0.0,
        0.0,
        2.220446049250313e-16,
        -1.0,
        0.0,
        0.0,
        1.0,
        2.220446049250313e-16,
        0.0,
        0.0,
        0.0,
        0.0,
        1.0
      ],
      "name": "Sketchfab_model"
    },
    {
      "children": [
        2
      ],
      "name": "root"
    },
    {
      "children": [
        3
      ],
      "matrix": [
        1.0,
        0.0,
        0.0,
        0.0,
        0.0,
        2.220446049250313e-16,
        1.0,
        0.0,
        0.0,
        -1.0,
        2.220446049250313e-16,
        0.0,
        0.0,
        0.0,
        0.0,
        1.0
      ],
      "name": "GLTF_SceneRootNode"
    },
    {
      "children": [
        4
      ],
      "name": "ClownFishArmature_12"
    },
    {
      "children": [
        5,
        7,
        6
      ],
      "name": "GLTF_created_0"
    },
    {
      "children": [
        8,
        9,
        12,
        14
      ],
      "name": "GLTF_created_0_rootJoint"
    },
    {
      "name": "defaultMaterial_11"
    },
    {
      "mesh": 0,
      "name": "Object_7",
      "skin": 0
    },
    {
      "name": "Bone_3",
      "rotation": [
        -0.5932961106300354,
        0.0021448868792504072,
        -0.0015103837940841913,
        0.8049800395965576
      ],
      "scale": [
        1.0,
        0.9999999403953552,
        0.9999999403953552
      ],
      "translation": [
        -0.0003467040660325438,
        0.06608650088310242,
        -0.40674731135368347
      ]
    },
    {
      "children": [
        10
      ],
      "name": "Bone.001_6",
      "rotation": [
        0.002291468670591712,
        0.6756537556648254,
        0.7372145056724548,
        0.0012713331962004304
      ],
      "scale": [
        1.0,
        1.0000001192092896,
        1.000014305114746
      ],
      "translation": [
        -0.0003467040660325438,
        0.06608650088310242,
        -0.40674731135368347
      ]
    },
    {
      "children": [
        11
      ],
      "name": "Bone.002_5",
      "rotation": [
        0.010973268188536167,
        7.154225158956251e-07,
        6.889291626066552e-08,
        0.9999397993087769
      ],
      "translation": [
        -2.2073720629123272e-10,
        1.0620578527450562,
        -2.2218955564312637e-09
      ]
    },
    {
      "name": "Bone.003_4",
      "rotation": [
        -0.03202005848288536,
        -3.5681588883562654e-07,
        -2.1326583521386056e-07,
        0.9994873404502869
      ],
      "scale": [
        1.0,
        1.0000001192092896,
        1.0
      ],
      "translation": [
        5.004068270864082e-10,
        0.706145703792572,
        4.538378561846912e-10
      ]
    },
    {
      "children": [
        13
      ],
      "name": "Bone.004_8",
      "rotation": [
        -0.41092222929000854,
        -0.48649096488952637,
        -0.6150612831115723,
        0.46493998169898987
      ],
      "scale": [
        0.9999999403953552,
        0.9999999403953552,
        1.0
      ],
      "translation": [
        -0.0003467040660325438,
        0.06608650088310242,
        -0.40674731135368347
      ]
    },
    {
      "name": "Bone.005_7",
      "rotation": [
        0.024200960993766785,
        -0.0033053895458579063,
        -0.5759440660476685,
        0.8171241283416748
      ],
      "scale": [
        0.9999998807907104,
        0.9999997615814209,
        0.9999998807907104
      ],
      "translation": [
        -3.958120942115784e-08,
        0.29556137323379517,
        3.725290298461914e-09
      ]
    },
    {
      "children": [
        15
      ],
      "name": "Bone.006_10",
      "rotation": [
        -0.4637678861618042,
        0.532873272895813,
        0.5742307901382446,
        0.4137929081916809
      ],
      "scale": [
        1.0,
        0.9999999403953552,
        1.0
      ],
      "translation": [
        -0.0003467040660325438,
        0.06608650088310242,
        -0.40674731135368347
      ]
    },
    {
      "name": "Bone.007_9",
      "rotation": [
        0.2323729395866394,
        -0.4387986660003662,
        0.5232861042022705,
        0.6925534009933472
      ],
      "scale": [
        1.0,
        0.9999998807907104,
        0.9999999403953552
      ],
      "translation": [
        1.9150320440530777e-08,
        0.28378623723983765,
        6.28642737865448e-09
      ]
    }
  ],
  "samplers": [
    {
      "magFilter": 9729,
      "minFilter": 9987,
      "wrapS": 10497,
      "wrapT": 10497
    }
  ],
  "scene": 0,
  "scenes": [
    {
      "name": "Sketchfab_Scene",
      "nodes": [
        0
      ]
    }
  ],
  "skins": [
    {
      "inverseBindMatrices": 5,
      "joints": [
        5,
        8,
        9,
        10,
        11,
        12,
        13,
        14,
        15
      ],
      "skeleton": 5
    }
  ],
  "textures": [
    {
      "sampler": 0,
      "source": 0
    },
    {
      "sampler": 0,
      "source": 1
    },
    {
      "sampler": 0,
      "source": 2
    }
  ]
}
