{
  "accessors": [
    {
      "bufferView": 2,
      "componentType": 5126,
      "count": 65532,
      "max": [
        0.18735812604427338,
        0.5448445081710815,
        0.7768669128417969
      ],
      "min": [
        -0.25892189145088196,
        -0.45841947197914124,
        -1.2300912141799927
      ],
      "type": "VEC3"
    },
    {
      "bufferView": 2,
      "byteOffset": 786384,
      "componentType": 5126,
      "count": 65532,
      "max": [
        1.0,
        0.9998289346694946,
        0.9999657869338989
      ],
      "min": [
        -1.0,
        -0.9998836517333984,
        -0.9996785521507263
      ],
      "type": "VEC3"
    },
    {
      "bufferView": 1,
      "componentType": 5126,
      "count": 65532,
      "max": [
        0.99951171875,
        0.99951171875
      ],
      "min": [
        0.0006570816040039063,
        0.0394287109375
      ],
      "type": "VEC2"
    },
    {
      "bufferView": 0,
      "componentType": 5125,
      "count": 338055,
      "type": "SCALAR"
    },
    {
      "bufferView": 2,
      "byteOffset": 1572768,
      "componentType": 5126,
      "count": 28364,
      "max": [
        0.24709412455558777,
        0.5437705516815186,
        0.7768669128417969
      ],
      "min": [
        -0.25892189145088196,
        -0.4567844569683075,
        -1.2267311811447144
      ],
      "type": "VEC3"
    },
    {
      "bufferView": 2,
      "byteOffset": 1913136,
      "componentType": 5126,
      "count": 28364,
      "max": [
        0.9999964237213135,
        0.9998289346694946,
        0.9993322491645813
      ],
      "min": [
        -0.9999994039535522,
        -0.9999085664749146,
        -0.9995126724243164
      ],
      "type": "VEC3"
    },
    {
      "bufferView": 1,
      "byteOffset": 524256,
      "componentType": 5126,
      "count": 28364,
      "max": [
        0.99951171875,
        0.99658203125
      ],
      "min": [
        0.0006570816040039063,
        0.039398193359375
      ],
      "type": "VEC2"
    },
    {
      "bufferView": 0,
      "byteOffset": 1352220,
      "componentType": 5125,
      "count": 107835,
      "type": "SCALAR"
    }
  ],
  "asset": {
    "extras": {
      "author": "AshCreations3D (https://sketchfab.com/Fancy_Models_Collections)",
      "license": "SKETCHFAB Standard (https://sketchfab.com/licenses)",
      "source": "https://sketchfab.com/3d-models/futuristic-bioluminescent-fish-e0bd9a5d6ac248a58bf2d23eea6675e1",
      "title": "Futuristic Bioluminescent Fish 🐟✨"
    },
    "generator": "Sketchfab-16.60.0",
    "version": "2.0"
  },
  "bufferViews": [
    {
      "buffer": 0,
      "byteLength": 1783560,
      "name": "floatBufferViews",
      "target": 34963
    },
    {
      "buffer": 0,
      "byteLength": 751168,
      "byteOffset": 1783560,
      "byteStride": 8,
      "name": "floatBufferViews",
      "target": 34962
    },
    {
      "buffer": 0,
      "byteLength": 2253504,
      "byteOffset": 2534728,
      "byteStride": 12,
      "name": "floatBufferViews",
      "target": 34962
    }
  ],
  "buffers": [
    {
      "byteLength": 4788232,
      "uri": "scene.bin"
    }
  ],
  "images": [
    {
      "uri": "textures/Material_0.012_baseColor.jpeg"
    }
  ],
  "materials": [
    {
      "doubleSided": true,
      "name": "Material_0.012",
      "pbrMetallicRoughness": {
        "baseColorTexture": {
          "index": 0
        },
        "metallicFactor": 0.0,
        "roughnessFactor": 0.8
      }
    }
  ],
  "meshes": [
    {
      "name": "Object_0",
      "primitives": [
        {
          "attributes": {
            "NORMAL": 1,
            "POSITION": 0,
            "TEXCOORD_0": 2
          },
          "indices": 3,
          "material": 0,
          "mode": 4
        }
      ]
    },
    {
      "name": "Object_1",
      "primitives": [
        {
          "attributes": {
            "NORMAL": 5,
            "POSITION": 4,
            "TEXCOORD_0": 6
          },
          "indices": 7,
          "material": 0,
          "mode": 4
        }
      ]
    }
  ],
  "nodes": [
    {
      "children": [
        1
      ],
      "matrix": [
        1.0,
        0.0,
        0.0,
        0.0,
        0.0,
        2.220446049250313e-16,
        -1.0,
        0.0,
        0.0,
        1.0,
        2.220446049250313e-16,
        0.0,
        0.0,
        0.0,
        0.0,
        1.0
      ],
      "name": "Sketchfab_model"
    },
    {
      "children": [
        2
      ],
      "name": "root"
    },
    {
      "children": [
        3
      ],
      "matrix": [
        1.0,
        0.0,
        0.0,
        0.0,
        0.0,
        2.220446049250313e-16,
        1.0,
        0.0,
        0.0,
        -1.0,
        2.220446049250313e-16,
        0.0,
        0.0,
        0.0,
        0.0,
        1.0
      ],
      "name": "GLTF_SceneRootNode"
    },
    {
      "children": [
        4,
        5
      ],
      "matrix": [
        0.7496665716171265,
        0.0,
        0.0,
        0.0,
        0.0,
        0.7496665716171265,
        0.0,
        0.0,
        0.0,
        0.0,
        0.7496665716171265,
        0.0,
        -17.945079803466797,
        -0.03294975683093071,
        0.16701380908489227,
        1.0
      ],
      "name": "Model No-13_0"
    },
    {
      "mesh": 0,
      "name": "Object_4"
    },
    {
      "mesh": 1,
      "name": "Object_5"
    }
  ],
  "samplers": [
    {
      "magFilter": 9729,
      "minFilter": 9987,
      "wrapS": 10497,
      "wrapT": 10497
    }
  ],
  "scene": 0,
  "scenes": [
    {
      "name": "Sketchfab_Scene",
      "nodes": [
        0
      ]
    }
  ],
  "textures": [
    {
      "sampler": 0,
      "source": 0
    }
  ]
}
